<svg width="144" height="32" viewBox="0 0 144 32" fill="none" xmlns="http://www.w3.org/2000/svg">
<path d="M35.4498 6.94189V6.57651H39.373C40.1069 6.57651 40.8125 6.60461 41.5463 6.57651C42.2519 6.5484 42.9857 6.49219 43.7196 6.49219C44.397 6.49219 45.1026 6.5484 45.8646 6.68893C46.6267 6.82947 47.3041 7.05432 47.925 7.3916C48.546 7.72888 49.054 8.17858 49.4774 8.74072C49.8725 9.30285 50.0983 10.0336 50.0983 10.9049C50.0983 11.6076 49.929 12.1978 49.6185 12.6756C49.308 13.1816 48.9129 13.5751 48.4048 13.8842C47.8968 14.1934 47.3605 14.4464 46.7396 14.5869C46.1187 14.7555 45.5259 14.868 44.9332 14.9242V15.0647C45.78 15.2333 46.542 15.3739 47.2194 15.5425C47.8968 15.7112 48.4613 15.936 48.9411 16.2452C49.4209 16.5544 49.8161 16.976 50.0983 17.5381C50.3805 18.1002 50.5499 18.831 50.6346 19.7585C50.7192 20.8547 50.8039 21.726 50.8321 22.3724C50.8886 23.0189 50.945 23.5248 51.0579 23.8902C51.1426 24.2556 51.2837 24.5085 51.4531 24.621C51.6224 24.7334 51.8482 24.7896 52.1587 24.7896C52.4974 24.7896 52.7796 24.6772 53.0054 24.4804C53.2312 24.2837 53.4288 24.0869 53.5981 23.9183L53.8521 24.1431C53.6828 24.3118 53.5134 24.4804 53.3441 24.621C53.1748 24.7615 52.9772 24.902 52.7796 24.9863C52.5538 25.0988 52.2998 25.1831 51.9893 25.2393C51.6789 25.2955 51.2837 25.3236 50.8321 25.3236C49.8725 25.3236 49.1387 25.1831 48.6024 24.8739C48.0661 24.5647 47.671 24.1994 47.417 23.7497C47.163 23.2999 46.9936 22.8221 46.9372 22.2881C46.8807 21.7541 46.8243 21.2763 46.8243 20.7985C46.796 20.0958 46.7396 19.3931 46.6831 18.7467C46.6267 18.0721 46.4856 17.4819 46.2598 16.976C46.034 16.47 45.6953 16.0484 45.2437 15.7393C44.7921 15.4301 44.1712 15.2615 43.3527 15.2615H41.631V24.621H44.03V24.9863H35.4781V24.621H37.8771V6.94189H35.4498ZM42.6753 14.9523C43.4656 14.9523 44.0583 14.8399 44.5099 14.6431C44.9615 14.4464 45.3001 14.1653 45.5259 13.7999C45.7517 13.4345 45.8929 13.041 45.9493 12.5913C46.0058 12.1416 46.034 11.6919 46.034 11.2141C46.034 10.4552 45.9775 9.80877 45.8646 9.24664C45.7517 8.71261 45.5824 8.2629 45.3566 7.89752C45.1026 7.53213 44.7921 7.27917 44.3687 7.11053C43.9454 6.94189 43.4091 6.85757 42.7317 6.85757C42.5342 6.85757 42.3366 6.85757 42.1672 6.88568C41.9697 6.91379 41.7721 6.91379 41.6027 6.94189V14.9523H42.6753Z" fill="#222958"/>
<path d="M60.9094 6.57715L65.3971 19.4781H65.4535L70.0259 6.57715H76.5457V6.94253H74.1466V24.6778H76.5457V25.0432H67.9937V24.6778H70.3646V6.94253H70.3081L63.9294 25.0432H63.506L57.0709 6.94253H57.0144V24.6778H59.4135V25.0432H54.2202V24.6778H56.5911V6.94253H54.2202V6.57715H60.9094Z" fill="#222958"/>
<path d="M79.255 24.6778L86.7062 6.57715H87.4118L95.2864 24.6778H97.5162V25.0432H88.7666V24.6778H91.1939L88.4844 18.4381H82.2468L79.6501 24.6778H81.9645V25.0432H77.0535V24.6778H79.255ZM82.3879 18.0728H88.3715L85.295 10.9899L82.3879 18.0728Z" fill="#222958"/>
<path d="M101.833 6.54883H101.269V25.043H101.833V6.54883Z" fill="#222958"/>
<path d="M108.267 7.75763C108.267 8.43219 107.872 8.76946 107.449 8.91L108.352 10.7088H107.9L107.054 8.99432H105.925V10.7088H105.558V6.57715H106.997C107.844 6.57715 108.267 7.11117 108.267 7.75763ZM106.913 8.62893C107.534 8.62893 107.872 8.31976 107.872 7.78573C107.872 7.2236 107.505 6.91443 106.941 6.91443H105.953V8.62893H106.913Z" fill="#222958"/>
<path d="M109.169 8.31912C109.169 7.16675 109.79 6.49219 110.778 6.49219C111.766 6.49219 112.387 7.19485 112.387 8.31912V8.99368C112.387 10.1179 111.766 10.7925 110.75 10.7925C109.762 10.7925 109.141 10.1179 109.141 8.99368V8.31912H109.169ZM109.564 8.99368C109.564 9.9493 110.073 10.4552 110.806 10.4552C111.54 10.4552 112.048 9.9493 112.048 8.99368V8.31912C112.048 7.36349 111.54 6.82947 110.806 6.82947C110.073 6.82947 109.564 7.36349 109.564 8.31912V8.99368Z" fill="#222958"/>
<path d="M114.278 10.7088V8.88189L112.867 6.57715H113.318L114.447 8.4884H114.475L115.633 6.57715H116.084L114.673 8.88189V10.7088H114.278Z" fill="#222958"/>
<path d="M116.002 10.7088L117.497 6.57715H117.893L119.389 10.7088H118.965L118.514 9.38781H116.877L116.425 10.7088H116.002ZM117.667 7.05496L116.961 9.07864H118.372L117.667 7.05496Z" fill="#222958"/>
<path d="M122.549 10.7088H120.178V6.57715H120.545V10.3434H122.549V10.7088Z" fill="#222958"/>
<path d="M125.767 10.7088H123.339V6.57715H125.767V6.91443H123.735V8.40408H125.654V8.76946H123.735V10.3434H125.767V10.7088Z" fill="#222958"/>
<path d="M105.558 17.8768V13.7451H105.953L107.421 17.146L108.888 13.7451H109.255V17.8768H108.917V14.5883H108.888L107.59 17.5395H107.251L105.953 14.5883H105.925V17.8768H105.558Z" fill="#222958"/>
<path d="M110.074 17.8768L111.57 13.7451H111.966L113.461 17.8768H113.038L112.586 16.5558H110.921L110.47 17.8768H110.074ZM111.74 14.2229L111.034 16.2466H112.445L111.74 14.2229Z" fill="#222958"/>
<path d="M116.933 14.9256C116.933 15.6002 116.538 15.9374 116.115 16.078L117.018 17.8768H116.567L115.72 16.1623H114.591V17.8768H114.196V13.7451H115.635C116.51 13.7451 116.933 14.2791 116.933 14.9256ZM115.579 15.7969C116.2 15.7969 116.538 15.4877 116.538 14.9537C116.538 14.3916 116.171 14.0824 115.607 14.0824H114.619V15.7969H115.579Z" fill="#222958"/>
<path d="M117.862 15.4871C117.862 14.3347 118.483 13.6602 119.471 13.6602C120.459 13.6602 121.08 14.3628 121.08 15.4871V16.1616C121.08 17.2859 120.459 17.9605 119.443 17.9605C118.455 17.9605 117.834 17.2859 117.834 16.1616V15.4871H117.862ZM118.229 16.1616C118.229 17.1173 118.737 17.6232 119.471 17.6232C120.205 17.6232 120.713 17.1173 120.713 16.1616V15.4871C120.713 14.5315 120.205 13.9974 119.471 13.9974C118.737 13.9974 118.229 14.5315 118.229 15.4871V16.1616Z" fill="#222958"/>
<path d="M122.38 16.1333C122.38 17.0608 122.804 17.5949 123.594 17.5949C124.299 17.5949 124.695 17.1733 124.695 16.6674H125.09C125.09 17.2576 124.61 17.9603 123.594 17.9603C122.578 17.9603 122.013 17.2857 122.013 16.1333V15.4588C122.013 14.3626 122.606 13.6318 123.594 13.6318C124.582 13.6318 125.09 14.3345 125.09 14.9528H124.695C124.695 14.5031 124.299 13.9691 123.594 13.9691C122.832 13.9691 122.408 14.5312 122.408 15.4588V16.1333H122.38Z" fill="#222958"/>
<path d="M125.654 17.8768L127.15 13.7451H127.545L129.041 17.8768H128.618L128.166 16.5558H126.529L126.078 17.8768H125.654ZM127.32 14.2229L126.614 16.2466H128.025L127.32 14.2229Z" fill="#222958"/>
<path d="M130.226 13.7451H129.831V17.8768H130.226V13.7451Z" fill="#222958"/>
<path d="M131.468 17.8768V13.7451H131.863L134.093 17.2022H134.121V13.7451H134.488V17.8768H134.093L131.863 14.3916V17.8768H131.468Z" fill="#222958"/>
<path d="M138.156 17.8768H135.729V13.7451H138.156V14.0824H136.124V15.572H138.044V15.9374H136.124V17.5114H138.156V17.8768Z" fill="#222958"/>
<path d="M106.772 20.9121C108.098 20.9121 108.606 21.7553 108.606 22.992C108.606 24.2006 108.126 25.0438 106.772 25.0438H105.558V20.9121H106.772ZM105.953 24.6784H106.772C107.788 24.6784 108.211 24.0319 108.211 22.9639C108.211 21.9239 107.788 21.2494 106.772 21.2494H105.953V24.6784Z" fill="#222958"/>
<path d="M109.481 22.4018L109.763 20.9121H110.243L109.792 22.4018H109.481Z" fill="#222958"/>
<path d="M110.328 25.0438L111.824 20.9121H112.219L113.715 25.0438H113.291L112.84 23.7228H111.203L110.751 25.0438H110.328ZM111.993 21.3899L111.287 23.4136H112.698L111.993 21.3899Z" fill="#222958"/>
<path d="M114.562 23.9468C114.59 24.3403 114.929 24.7619 115.663 24.7619C116.283 24.7619 116.707 24.4527 116.707 23.9468C116.707 23.5252 116.453 23.3284 115.917 23.1879L115.239 23.0193C114.731 22.8787 114.28 22.5695 114.28 21.9512C114.28 21.2204 114.9 20.7988 115.663 20.7988C116.396 20.7988 117.017 21.1923 117.046 21.9231H116.65C116.622 21.5296 116.312 21.1642 115.663 21.1642C115.07 21.1642 114.675 21.4453 114.675 21.9512C114.675 22.3166 114.9 22.5414 115.352 22.6539L116.001 22.8225C116.679 22.9911 117.102 23.2722 117.102 23.9187C117.102 24.7056 116.453 25.0991 115.606 25.0991C114.534 25.0991 114.167 24.4246 114.167 23.9187H114.562V23.9468Z" fill="#222958"/>
<path d="M118.174 23.9468C118.202 24.3403 118.541 24.7619 119.275 24.7619C119.896 24.7619 120.319 24.4527 120.319 23.9468C120.319 23.5252 120.065 23.3284 119.529 23.1879L118.851 23.0193C118.343 22.8787 117.892 22.5695 117.892 21.9512C117.892 21.2204 118.513 20.7988 119.275 20.7988C120.009 20.7988 120.629 21.1923 120.658 21.9231H120.263C120.234 21.5296 119.924 21.1642 119.275 21.1642C118.682 21.1642 118.287 21.4453 118.287 21.9512C118.287 22.3166 118.513 22.5414 118.964 22.6539L119.613 22.8225C120.291 22.9911 120.714 23.2722 120.714 23.9187C120.714 24.7056 120.065 25.0991 119.218 25.0991C118.146 25.0991 117.779 24.4246 117.779 23.9187H118.174V23.9468Z" fill="#222958"/>
<path d="M122.042 23.6103C122.042 24.313 122.465 24.7908 123.171 24.7908C123.877 24.7908 124.3 24.3411 124.3 23.6103V20.9121H124.695V23.6103C124.695 24.5379 124.102 25.1281 123.171 25.1281C122.24 25.1281 121.647 24.5098 121.647 23.6103V20.9121H122.042V23.6103Z" fill="#222958"/>
<path d="M128.588 22.0926C128.588 22.7671 128.193 23.1044 127.77 23.245L128.673 25.0438H128.221L127.374 23.3293H126.245V25.0438H125.879V20.9121H127.318C128.165 20.9121 128.588 21.4461 128.588 22.0926ZM127.233 22.9639C127.854 22.9639 128.193 22.6547 128.193 22.1207C128.193 21.5586 127.826 21.2494 127.262 21.2494H126.274V22.9639H127.233Z" fill="#222958"/>
<path d="M129.238 25.0438L130.734 20.9121H131.129L132.625 25.0438H132.201L131.75 23.7228H130.113L129.661 25.0438H129.238ZM130.903 21.3899L130.197 23.4136H131.609L130.903 21.3899Z" fill="#222958"/>
<path d="M133.388 25.0438V20.9121H133.783L136.013 24.3692H136.041V20.9121H136.436V25.0438H136.041L133.811 21.5586H133.783V25.0438H133.388Z" fill="#222958"/>
<path d="M137.876 23.3003C137.876 24.2278 138.299 24.7619 139.089 24.7619C139.795 24.7619 140.19 24.3403 140.19 23.8343H140.585C140.585 24.4246 140.106 25.1272 139.089 25.1272C138.073 25.1272 137.509 24.4527 137.509 23.3003V22.6258C137.509 21.5296 138.102 20.7988 139.089 20.7988C140.077 20.7988 140.585 21.5015 140.585 22.1198H140.19C140.19 21.6701 139.795 21.1361 139.089 21.1361C138.327 21.1361 137.904 21.6982 137.904 22.6258V23.3003H137.876Z" fill="#222958"/>
<path d="M144 25.0438H141.601V20.9121H144V21.2494H141.968V22.739H143.887V23.1044H141.968V24.6784H144V25.0438Z" fill="#222958"/>
<path d="M15.8621 0C7.11255 0 0 7.08287 0 15.7959C0 24.509 7.11255 31.5918 15.8621 31.5918C24.6117 31.5918 31.7242 24.509 31.7242 15.7959C31.7525 7.08287 24.6117 0 15.8621 0ZM15.8621 29.2871C8.41087 29.2871 2.3144 23.2442 2.3144 15.7959C2.3144 8.37577 8.38265 2.30474 15.8621 2.30474C23.3134 2.30474 29.4098 8.34766 29.4098 15.7959C29.4098 23.2442 23.3416 29.2871 15.8621 29.2871Z" fill="#222958"/>
<path d="M15.8048 3.28809C8.86155 3.28809 3.21667 8.90941 3.21667 15.8236C3.21667 22.7379 8.86155 28.3592 15.8048 28.3592C22.748 28.3592 28.3928 22.7379 28.3928 15.8236C28.3928 8.90941 22.748 3.28809 15.8048 3.28809ZM15.8048 28.1343C8.97445 28.1343 3.44247 22.5973 3.44247 15.8236C3.44247 9.02183 9.00268 3.51294 15.8048 3.51294C22.6351 3.51294 28.167 9.04994 28.167 15.8236C28.167 22.5973 22.6351 28.1343 15.8048 28.1343Z" fill="#222958"/>
<path d="M10.8117 7.61642C12.1947 5.45221 14.8478 5.25546 14.8478 5.25546C12.3923 4.49658 9.82385 6.57647 9.82385 6.57647L10.8117 7.61642Z" fill="#878787"/>
<path d="M9.17225 18.2411L8.69244 16.1613C7.16832 16.3299 5.58775 19 5.58775 19C4.93859 17.6228 5.55953 15.1494 5.55953 15.1494C4.91037 16.1894 4.487 17.2574 4.28943 18.2692C4.54345 19.534 5.02326 20.7145 5.6442 21.7826C6.09579 18.1006 8.15617 17.0045 8.15617 17.0045C5.36196 20.7426 7.78925 24.3684 7.78925 24.3684C7.08364 21.4172 9.17225 18.2411 9.17225 18.2411Z" fill="#878787"/>
<path d="M6.09706 17.2293C6.09706 17.2293 8.27034 15.6272 8.89128 15.6272C8.89128 15.6272 7.36716 15.2899 6.57688 15.9926C6.57688 15.9926 6.4922 15.4024 7.36716 13.3506C7.33894 13.3506 5.78659 15.1213 6.09706 17.2293Z" fill="#878787"/>
<path d="M8.15758 14.6723C8.15758 14.6723 8.35515 12.9578 9.45591 11.7773C9.45591 11.7773 7.73422 12.4238 7.11328 15.122C7.11328 15.122 8.7503 14.9253 9.11721 15.2345C9.14544 15.2064 8.77852 14.5599 8.15758 14.6723Z" fill="#878787"/>
<path d="M8.75003 9.10635C4.79862 11.6641 5.87115 15.88 5.87115 15.88C6.20984 12.8726 9.34275 10.7646 9.34275 10.7646L9.54032 10.6241C9.54032 10.6241 11.9958 9.19067 11.9958 7.16699C11.9958 7.16699 11.2902 8.76907 9.54032 8.4599C7.84685 8.12262 5.67358 10.0901 5.67358 10.0901C5.67358 10.062 5.67358 10.0058 5.67358 9.94955C4.96797 11.1862 4.45993 12.5635 4.23413 14.025C5.84292 9.49984 8.75003 9.10635 8.75003 9.10635Z" fill="#878787"/>
<path d="M22.2142 8.4599C20.4643 8.74096 19.7587 7.16699 19.7587 7.16699C19.7587 9.19067 22.2142 10.6241 22.2142 10.6241L22.4118 10.7646C22.4118 10.7646 25.5447 12.8726 25.8834 15.88C25.8834 15.88 26.9277 11.6641 23.0045 9.10635C23.0045 9.10635 25.9116 9.52795 27.5486 14.0531C27.3228 12.5916 26.8148 11.2143 26.1092 9.97765C26.1092 10.0339 26.1092 10.062 26.1092 10.1182C26.0809 10.0901 23.9077 8.12262 22.2142 8.4599Z" fill="#878787"/>
<path d="M9.73708 7.8981C9.73708 7.8981 8.6081 7.19543 7.64847 7.39218C7.30978 7.70135 6.99931 8.06674 6.68884 8.43213C7.25333 8.26349 9.22904 7.70135 9.73708 7.8981Z" fill="#878787"/>
<path d="M9.14551 6.74624C9.14551 6.74624 9.3713 6.156 10.8107 5.48145C10.8107 5.48145 10.3309 5.53766 9.76644 5.79062C9.3713 5.95926 8.91971 6.24032 8.52457 6.66192C8.46812 6.71814 8.41167 6.80246 8.35522 6.85867C8.35522 6.85867 9.5971 7.3927 10.5003 8.03915C10.5285 8.01104 9.85112 6.83056 9.14551 6.74624Z" fill="#878787"/>
<path d="M21.4787 24.565C21.6763 22.1198 20.2651 20.5458 20.2651 20.5458C20.3215 21.5576 19.7853 22.3727 19.7853 22.3727C20.632 24.031 19.7288 25.4082 19.6724 25.4926C19.9546 24.8461 19.5595 23.7781 19.5595 23.7781C18.6563 25.5769 17.2168 25.605 17.2168 25.605C17.2168 25.605 15.8339 27.2914 14.5355 25.605C14.5355 25.605 13.0961 25.5769 12.1929 23.7781C12.1929 23.7781 11.7695 24.8461 12.08 25.4926C12.0518 25.4364 11.1204 24.031 11.9671 22.3727C11.9671 22.3727 11.4308 21.5576 11.4873 20.5458C11.4873 20.5458 10.0761 22.1198 10.2736 24.565C10.2736 24.565 8.89065 21.9792 9.73738 19.5059C9.73738 19.5059 8.15682 22.2322 9.22935 25.5207C9.70916 25.858 10.2172 26.139 10.7535 26.4201C10.697 25.605 10.7817 24.7056 11.1204 23.8624C11.1204 23.8624 10.8946 25.071 11.7131 26.8136C12.0518 26.9541 12.4187 27.0665 12.7856 27.1509C12.7292 26.7855 12.7009 26.4482 12.7574 26.2514C12.8703 25.9142 13.463 26.5606 13.9146 27.4038C14.4509 27.4881 14.9871 27.5443 15.5234 27.5725C15.4387 27.4319 15.354 27.2633 15.354 27.0946L15.8621 27.3195L16.3701 27.0946C16.3701 27.2633 16.3137 27.4319 16.2008 27.5725C16.737 27.5443 17.3015 27.5162 17.8096 27.4038C18.2612 26.5606 18.8821 25.9142 18.9668 26.2514C19.0232 26.4482 18.995 26.7855 18.9385 27.1509C19.3055 27.0665 19.6724 26.926 20.0111 26.8136C20.886 25.0991 20.632 23.8905 20.632 23.8905C20.9707 24.7337 21.0554 25.6331 20.9989 26.4482C21.5352 26.1952 22.0432 25.8861 22.523 25.5488C23.5673 22.2603 22.015 19.534 22.015 19.534C22.89 21.9792 21.4787 24.565 21.4787 24.565Z" fill="#878787"/>
<path d="M15.864 23.75C15.6946 24.3402 14.989 24.8462 14.989 24.8462C15.4124 24.9867 15.864 26.0266 15.864 26.0266C15.864 26.0266 16.3156 24.9867 16.7389 24.8462C16.7672 24.8462 16.0333 24.3402 15.864 23.75Z" fill="#878787"/>
<path d="M26.1354 19.0005C26.1354 19.0005 24.5548 16.3303 23.0307 16.1617L22.5509 18.2416C22.5509 18.2416 24.6395 21.4176 23.9339 24.3688C23.9339 24.3688 26.3612 20.7431 23.5105 17.033C23.5105 17.033 25.5991 18.1292 26.0225 21.8111C26.6434 20.7431 27.1233 19.5626 27.3773 18.2978C27.1515 17.286 26.7563 16.2179 26.1072 15.178C26.1636 15.1499 26.7846 17.6232 26.1354 19.0005Z" fill="#878787"/>
<path d="M25.0358 8.43213C24.7535 8.06674 24.4148 7.72946 24.0761 7.39218C23.1447 7.19543 22.0157 7.8981 22.0157 7.8981C22.5238 7.70135 24.4713 8.26349 25.0358 8.43213Z" fill="#878787"/>
<path d="M4.20593 15.0656C4.00845 15.8526 4.20593 17.3703 4.20593 17.3703C4.48805 15.4872 5.70117 12.6484 5.70117 12.6484C4.62911 13.4073 4.20593 15.0656 4.20593 15.0656Z" fill="#878787"/>
<path d="M27.4897 15.0656C27.4897 15.0656 27.0666 13.4073 25.9945 12.6484C25.9945 12.6484 27.2076 15.4872 27.4897 17.3703C27.4897 17.3422 27.6872 15.8526 27.4897 15.0656Z" fill="#878787"/>
<path d="M24.2728 13.1826C25.1477 15.2344 25.0631 15.8246 25.0631 15.8246C24.2728 15.122 22.7487 15.4593 22.7487 15.4593C23.3696 15.4593 25.5429 17.0613 25.5429 17.0613C25.8251 14.9533 24.2728 13.1826 24.2728 13.1826Z" fill="#878787"/>
<path d="M24.4717 14.9248C23.8789 12.2265 22.129 11.5801 22.129 11.5801C23.2298 12.7606 23.4274 14.4751 23.4274 14.4751C22.8346 14.3626 22.4395 15.0091 22.4395 15.0091C22.8346 14.728 24.4717 14.9248 24.4717 14.9248Z" fill="#878787"/>
<path d="M15.8638 10.4559C15.8638 10.4559 17.7548 7.84203 15.8638 4.91895C13.9727 7.84203 15.8638 10.4559 15.8638 10.4559Z" fill="#878787"/>
<path d="M20.9148 7.61699L21.8744 6.57705C21.8744 6.57705 19.306 4.46905 16.8505 5.25603C16.8787 5.25603 19.5318 5.45278 20.9148 7.61699Z" fill="#878787"/>
<path d="M22.5789 6.74603C21.8733 6.85846 21.2242 8.01083 21.2242 8.01083C22.1556 7.36437 23.3692 6.83035 23.3692 6.83035C23.3128 6.77414 23.2563 6.68982 23.1999 6.6336C22.8047 6.212 22.3531 5.95904 21.958 5.7623C21.3653 5.50934 20.9137 5.45312 20.9137 5.45312C22.3531 6.15579 22.5789 6.74603 22.5789 6.74603Z" fill="#878787"/>
<path d="M11.9385 9.21892C13.3779 8.93786 14.7891 10.4837 14.7891 10.4837C13.9424 7.61685 14.7891 5.90234 14.7891 5.90234C12.3901 7.4201 11.9385 9.21892 11.9385 9.21892Z" fill="#878787"/>
<path d="M19.7565 9.21892C19.7565 9.21892 19.305 7.4201 16.9059 5.90234C16.9059 5.90234 17.7526 7.61685 16.9059 10.4837C16.9059 10.4837 18.3171 8.90975 19.7565 9.21892Z" fill="#878787"/>
<path d="M18.9103 21.8955C18.4587 22.036 18.0354 22.1485 17.6402 22.289C17.6402 22.3171 17.6402 22.3452 17.6402 22.3733C17.866 22.4014 18.12 22.4295 18.3458 22.4576C18.1765 23.1041 17.7249 23.1603 16.0879 22.6825C16.0596 22.0922 16.3419 21.6425 16.737 21.2491C17.1322 20.8556 17.3297 20.715 17.612 20.4621C18.0071 20.1248 17.5838 20.0967 17.4709 20.0967H15.8621H14.2533C14.1404 20.0967 13.717 20.1529 14.1122 20.4621C14.3944 20.6869 14.5638 20.8556 14.9871 21.2491C15.3823 21.6425 15.6645 22.0922 15.6363 22.6825C13.9993 23.1603 13.5477 23.1041 13.3783 22.4576C13.6324 22.4295 13.8581 22.4014 14.0839 22.3733C14.0839 22.3452 14.0839 22.3171 14.0839 22.289C13.6888 22.1766 13.2654 22.036 12.8138 21.8955C12.8985 23.1603 13.3501 23.5538 14.4791 23.3008C14.9871 23.1884 15.4952 23.0198 15.8903 23.5819C16.2854 23.0198 16.7935 23.1884 17.2733 23.3008C18.3741 23.5538 18.8256 23.1884 18.9103 21.8955ZM15.9468 21.3896C15.9185 21.4739 15.8621 21.4739 15.8339 21.4739C15.7774 21.4458 15.7492 21.3896 15.7492 21.3896C15.7492 21.3896 15.5234 21.0242 14.9589 20.5745C14.846 20.4902 14.9589 20.4621 14.9589 20.4621H15.8339H16.7088C16.7088 20.4621 16.9064 20.4621 16.737 20.6026C16.5677 20.715 16.1443 21.0523 15.9468 21.3896Z" fill="#878787"/>
<path d="M10.8965 12.8455C11.1787 12.5082 11.5456 12.199 11.8279 11.8617C12.2795 11.2996 12.7875 10.9623 13.5496 11.0185C13.7471 11.0185 13.9447 10.9623 14.1987 10.9342C13.86 10.3721 13.4649 10.0629 12.9004 9.95047C11.8843 9.72562 11.1505 10.1191 10.5013 11.2153C10.0215 11.9742 9.5417 12.733 9.06189 13.4919C9.68283 13.4919 10.3602 13.4638 10.8965 12.8455Z" fill="#878787"/>
<path d="M22.6364 13.4631C22.1283 12.648 21.6485 11.833 21.1405 11.046C20.9711 10.7649 20.7453 10.5119 20.5195 10.259C19.8986 9.55632 17.81 9.80928 17.6124 10.9335C18.685 10.6525 19.3906 11.1865 19.9833 11.9454C20.1244 12.1421 20.322 12.2827 20.4349 12.4794C21.0276 13.2102 21.7614 13.5194 22.6364 13.4631Z" fill="#878787"/>
<path d="M12.1643 20.3491C12.3054 20.9675 12.8699 21.4453 13.6884 21.4734C12.2207 20.7145 12.4747 19.4497 12.7288 18.1849C12.0231 18.4941 11.7409 18.1006 11.4869 17.5947C10.7813 16.2456 10.7813 14.8121 10.8942 13.3506C10.8095 13.5754 10.7248 13.8003 10.6684 14.0533C10.3297 15.5148 10.6402 16.7234 11.2046 18.0725C11.5151 18.7752 12.1078 18.7471 12.1643 20.3491Z" fill="#878787"/>
<path d="M19.5321 20.3499C19.5885 18.7478 20.1812 18.7759 20.4917 18.0452C21.0562 16.7241 21.3949 15.4875 21.0279 14.0259C20.9715 13.7729 20.8868 13.5481 20.8021 13.3232C20.915 14.8129 20.8868 16.2182 20.2094 17.5673C19.9554 18.0452 19.6732 18.4668 18.9676 18.1576C19.1934 19.4505 19.4756 20.6872 18.0079 21.4461C18.7982 21.4461 19.3909 20.9963 19.5321 20.3499Z" fill="#878787"/>
<path d="M14.0854 15.2057C14.1136 15.1776 14.1136 15.1214 13.9725 15.0371C13.5209 14.7279 12.533 14.0815 12.0815 13.8285C12.0815 13.8285 11.9403 13.7442 11.9968 13.8285C12.4201 14.2782 12.9 14.9246 12.9 14.9246C12.5613 14.9246 12.1661 14.9246 11.8839 14.9246C11.8839 14.9246 11.5734 14.8965 11.7992 15.0933C12.1944 15.4025 12.6177 16.0208 13.1258 16.0208C13.7185 15.9927 13.6902 16.4986 13.7185 16.9483C13.7749 17.5948 13.8031 18.2412 13.8596 18.8877C13.916 18.8877 14.0007 18.8877 14.0572 18.8596C13.9725 17.8196 13.8596 16.7797 13.7749 15.7397C13.7749 15.5711 13.8314 15.4587 13.8596 15.29C13.8878 15.29 14.0289 15.2619 14.0854 15.2057Z" fill="#878787"/>
<path d="M19.6167 13.8287C19.1651 14.0816 18.1773 14.7281 17.7257 15.0373C17.5563 15.1497 17.5845 15.1778 17.6128 15.2059C17.641 15.2621 17.8103 15.2621 17.8103 15.2621C17.8386 15.4308 17.895 15.5432 17.895 15.7118C17.8103 16.7518 17.7257 17.7917 17.6128 18.8317C17.6692 18.8317 17.7539 18.8317 17.8103 18.8598C17.8668 18.2133 17.895 17.5669 17.9515 16.9204C17.9797 16.4707 17.9515 15.9648 18.5442 15.9929C19.0522 16.021 19.4474 15.4027 19.8707 15.0654C20.0965 14.8967 19.786 14.8967 19.786 14.8967C19.5038 14.8967 19.1369 14.8967 18.77 14.8967C18.77 14.8967 19.2498 14.2503 19.6731 13.8006C19.786 13.7444 19.6167 13.8287 19.6167 13.8287Z" fill="#878787"/>
<path d="M14.6199 12.5361C14.7892 13.2669 15.6642 13.7447 15.8335 14.5317C16.0029 13.7447 16.9061 13.295 17.0472 12.5361C16.8496 12.7048 16.2569 12.8453 15.8335 12.9296C15.4102 12.8453 14.8174 12.7048 14.6199 12.5361Z" fill="#878787"/>
</svg>
